<?xml version="1.0" encoding="utf-8"?>
<!-- Generator: Adobe Illustrator 18.0.0, SVG Export Plug-In . SVG Version: 6.00 Build 0)  -->
<!DOCTYPE svg PUBLIC "-//W3C//DTD SVG 1.1//EN" "http://www.w3.org/Graphics/SVG/1.1/DTD/svg11.dtd">
<svg version="1.1" id="Layer_1" xmlns="http://www.w3.org/2000/svg" xmlns:xlink="http://www.w3.org/1999/xlink" x="0px" y="0px"
	 viewBox="0 0 100 100" enable-background="new 0 0 100 100" xml:space="preserve">
<g>
	<path fill="#0C72BC" d="M2.8,35.6v25.6h4v2.4H0V33.2h6.8v2.6h-4V35.6z"/>
	<path fill="#0C72BC" d="M14.8,39.8v7.4h7.6v2.4h-7.6v7.8h9.4v2.4H11.6V37.4h12.2l-0.4,2.4H14.8z"/>
	<path fill="#0C72BC" d="M40.8,43.6c0.8,1,1.4,2.2,1.4,3.8v12.4h-3v-12c0-1.2-0.2-2-0.6-2.6c-0.4-0.6-1.2-0.8-2-0.8
		c-1,0-1.8,0.2-2.4,0.8c-0.6,0.6-1.4,1.2-2,2.2v12.2h-3v-17h2.6l0.2,2.6c0.6-1,1.4-1.6,2.2-2.2c1-0.6,2-0.8,3-0.8
		C38.8,42.2,40,42.6,40.8,43.6z"/>
	<path fill="#0C72BC" d="M60,43.8c-0.8,0-1.8,0-2.8,0c2,1,3,2.4,3,4.4c0,1.8-0.6,3.2-1.8,4.2S55.6,54,53.6,54
		c-0.8,0-1.6-0.2-2.2-0.4c-0.2,0.2-0.4,0.4-0.6,0.8c-0.2,0.2-0.2,0.6-0.2,1c0,1,0.8,1.4,2.2,1.4h2.8c1.2,0,2.2,0.2,3,0.6
		s1.6,1,2,1.8s0.8,1.6,0.8,2.4c0,1.6-0.6,3-2,3.8c-1.4,1-3.4,1.4-6,1.4c-1.8,0-3.4-0.2-4.4-0.6s-1.8-1-2.4-1.8
		c-0.4-0.8-0.6-1.8-0.6-3h2.8c0,0.6,0.2,1.2,0.4,1.6c0.2,0.4,0.8,0.8,1.4,1c0.6,0.2,1.6,0.4,2.8,0.4c1.8,0,3.2-0.2,3.8-0.6
		c0.8-0.4,1.2-1.2,1.2-2c0-0.8-0.4-1.4-1-1.8c-0.6-0.4-1.4-0.6-2.6-0.6H52c-1.4,0-2.6-0.4-3.4-1c-0.8-0.6-1.2-1.4-1.2-2.4
		c0-0.6,0.2-1.2,0.4-1.6c0.4-0.6,0.8-1,1.4-1.4c-1-0.6-1.8-1.2-2.2-2c-0.4-0.8-0.8-1.8-0.8-2.8c0-1.2,0.2-2.2,0.8-3.2s2-1.4,3-2
		s2.2-0.8,3.4-0.8c1.4,0,2.4,0,3.4-0.2s1.6-0.2,2.2-0.4c0.6-0.2,1.4-0.6,2.2-1l0.8,2.8C61.4,43.6,60.8,43.8,60,43.8z M50.8,45.4
		c-0.8,0.8-1,1.6-1,2.8s0.4,2.2,1,2.8c0.6,0.8,1.6,1,2.6,1c1.2,0,2-0.4,2.8-1s1-1.6,1-2.8c0-2.6-1.2-3.8-3.6-3.8
		C52.2,44.4,51.4,44.8,50.8,45.4z"/>
	<path fill="#0C72BC" d="M76.8,40.8L79,39l9,10l-9,10l-2.2-1.8l4.4-4.8c0.8-1,1.6-1.6,2.2-2H66v-2.6h17.4c-0.4-0.2-0.8-0.6-1-0.8
		s-0.6-0.6-1.2-1.2L76.8,40.8z"/>
	<path fill="#0C72BC" d="M93.2,63.6v-2.4h4V35.6h-4v-2.4h6.8v30.6h-6.8V63.6z"/>
</g>
</svg>
