<?xml version="1.0" encoding="utf-8"?>
<!-- Generator: Adobe Illustrator 18.0.0, SVG Export Plug-In . SVG Version: 6.00 Build 0)  -->
<!DOCTYPE svg PUBLIC "-//W3C//DTD SVG 1.1//EN" "http://www.w3.org/Graphics/SVG/1.1/DTD/svg11.dtd">
<svg version="1.1" id="Layer_1" xmlns="http://www.w3.org/2000/svg" xmlns:xlink="http://www.w3.org/1999/xlink" x="0px" y="0px"
	 viewBox="0 0 50 17" enable-background="new 0 0 50 17" xml:space="preserve">
<g>
	<path fill="#FFFFFF" d="M1.4,1.3v12.8h2v1.2H0V0.1h3.4v1.3H1.4z"/>
	<path fill="#FFFFFF" d="M7.4,3.4v3.7h3.8v1.2H7.4v3.9h4.7v1.2H5.8V2.2h6.1l-0.2,1.2H7.4z"/>
	<path fill="#FFFFFF" d="M20.4,5.3c0.4,0.5,0.7,1.1,0.7,1.9v6.2h-1.5v-6c0-0.6-0.1-1-0.3-1.3c-0.2-0.3-0.6-0.4-1-0.4
		c-0.5,0-0.9,0.1-1.2,0.4c-0.3,0.3-0.7,0.6-1,1.1v6.1h-1.5V4.8h1.3l0.1,1.3c0.3-0.5,0.7-0.8,1.1-1.1c0.5-0.3,1-0.4,1.5-0.4
		C19.4,4.6,20,4.8,20.4,5.3z"/>
	<path fill="#FFFFFF" d="M30,5.4c-0.4,0-0.9,0-1.4,0c1,0.5,1.5,1.2,1.5,2.2c0,0.9-0.3,1.6-0.9,2.1c-0.6,0.5-1.4,0.8-2.4,0.8
		c-0.4,0-0.8-0.1-1.1-0.2c-0.1,0.1-0.2,0.2-0.3,0.4c-0.1,0.1-0.1,0.3-0.1,0.5c0,0.5,0.4,0.7,1.1,0.7h1.4c0.6,0,1.1,0.1,1.5,0.3
		c0.4,0.2,0.8,0.5,1,0.9c0.2,0.4,0.4,0.8,0.4,1.2c0,0.8-0.3,1.5-1,1.9c-0.7,0.5-1.7,0.7-3,0.7c-0.9,0-1.7-0.1-2.2-0.3
		c-0.5-0.2-0.9-0.5-1.2-0.9c-0.2-0.4-0.3-0.9-0.3-1.5h1.4c0,0.3,0.1,0.6,0.2,0.8c0.1,0.2,0.4,0.4,0.7,0.5c0.3,0.1,0.8,0.2,1.4,0.2
		c0.9,0,1.6-0.1,1.9-0.3c0.4-0.2,0.6-0.6,0.6-1c0-0.4-0.2-0.7-0.5-0.9c-0.3-0.2-0.7-0.3-1.3-0.3h-1.4c-0.7,0-1.3-0.2-1.7-0.5
		c-0.4-0.3-0.6-0.7-0.6-1.2c0-0.3,0.1-0.6,0.2-0.8c0.2-0.3,0.4-0.5,0.7-0.7c-0.5-0.3-0.9-0.6-1.1-1c-0.2-0.4-0.4-0.9-0.4-1.4
		c0-0.6,0.1-1.1,0.4-1.6S24.5,5.3,25,5c0.5-0.3,1.1-0.4,1.7-0.4c0.7,0,1.2,0,1.7-0.1s0.8-0.1,1.1-0.2c0.3-0.1,0.7-0.3,1.1-0.5
		l0.4,1.4C30.7,5.3,30.4,5.4,30,5.4z M25.4,6.2C25,6.6,24.9,7,24.9,7.6c0,0.6,0.2,1.1,0.5,1.4c0.3,0.4,0.8,0.5,1.3,0.5
		c0.6,0,1-0.2,1.4-0.5s0.5-0.8,0.5-1.4c0-1.3-0.6-1.9-1.8-1.9C26.1,5.7,25.7,5.9,25.4,6.2z"/>
	<path fill="#FFFFFF" d="M38.4,3.9L39.5,3l4.5,5l-4.5,5l-1.1-0.9l2.2-2.4c0.4-0.5,0.8-0.8,1.1-1h-8.7V7.4h8.7
		c-0.2-0.1-0.4-0.3-0.5-0.4c-0.1-0.1-0.3-0.3-0.6-0.6L38.4,3.9z"/>
	<path fill="#FFFFFF" d="M46.6,15.3v-1.2h2V1.3h-2V0.1H50v15.3H46.6z"/>
</g>
</svg>
