<svg id="Layer_1" data-name="Layer 1" xmlns="http://www.w3.org/2000/svg" viewBox="0 0 210 100"><title>rev_assets_v1.0</title><path d="M64.66,41.91l-6.1,15.34L52.28,41.91H44.79v0l.45.89c2.65.3,3.15,1.1,4.22,3.88l6.46,15.46h3.27l8-20.26Z"/><path d="M101.46,41.44C97,41.44,94.64,45.49,94,47h-.09V41.44L85.8,42.83l.45.89c2.45.16,3.13,1,3.13,3.86V62.17h4.48V51.54c0-3.09,2.56-7.14,5.52-7.14s3,3.05,3,6.49V62.17h4.48V47.58c0-3.35-1.35-6.14-5.43-6.14"/><path d="M120.88,42.83v.05l.42.84c2.35.16,3,1,3,3.86v4.79c0,3.61-2,7.31-4.89,7.31-2.15,0-3.67-1.17-3.67-5.14V41.44l-7.94,1.39h0l.44.89c2.37.16,3,1,3,3.86v6.18c0,3.22,0,8.88,6,8.88,4.35,0,6.19-3.48,7-5.39h.09v4.92h4.49V41.44Z"/><path d="M27.89,61.11c-1.78-.17-2.43-1.26-3.82-3.62l-5-8.64c3.28-.73,6.85-1.73,7-6.86.17-5.45-5-7.2-11-7.11H4.16l.51,1c2.54.08,3.06.8,3.06,3.8V57.33c0,3-.53,3.73-3.08,3.8l-.51,1v0h8.22V49.4l-1.1-1.86h1.1v-11l2.81,0c3.57,0,6.35,1.62,6.35,5.44s-2.41,5.6-6.44,5.6H13.41L22,62.16h6.44Z"/><path d="M149.45,61.12a11.24,11.24,0,0,1-6.12,1.52c-7.2-.16-11.54-4-11.54-11.32,0-6.26,3.09-10,9.42-9.88,7.57-.08,9.63,5.67,9.06,10.27H136.35c-.22,7.63,5.64,10.16,13.1,7.27Zm-3.52-11.36c.33-2.67-.28-7-4.58-6.84-3.95.1-5,3.44-5,6.84Z"/><path d="M85,61.12a11.26,11.26,0,0,1-6.12,1.52c-7.21-.16-11.54-4-11.54-11.32,0-6.26,3.08-10,9.41-9.88,7.57-.08,9.64,5.67,9.06,10.27H71.92C71.69,59.34,77.55,61.87,85,59ZM81.5,49.76c.33-2.67-.28-7-4.59-6.84-3.93.1-5,3.44-5,6.84Z"/><path d="M45.26,61.12a11.22,11.22,0,0,1-6.11,1.52c-7.2-.16-11.54-4-11.54-11.32,0-6.26,3.09-10,9.42-9.88,7.56-.08,9.63,5.67,9.06,10.27H32.16c-.22,7.63,5.63,10.16,13.1,7.27Zm-3.5-11.36c.32-2.67-.28-7-4.59-6.84-3.94.1-5,3.44-5,6.84Z"/><path d="M205.8,21a22.5,22.5,0,0,0-11.06-5.6.16.16,0,0,0-.16.07.17.17,0,0,0,0,.18l.68,1.22v1.59a.17.17,0,0,0,.13.16l.82.23v.87a.17.17,0,0,0,.13.16,18.92,18.92,0,0,1,4.5,2.18h-5V22a.17.17,0,0,0-.17-.17h-1.28c-3.72-1.48-5.78-4.75-5.78-6.45a.17.17,0,0,0-.17-.17h-.15v-.66h-.41a1.48,1.48,0,0,0-.68-.65,10.64,10.64,0,0,0,.21-3.75,1.34,1.34,0,0,1,.07-.54h0a5.89,5.89,0,0,1,.36-1,1.37,1.37,0,0,0-.3-1.31,2.09,2.09,0,0,0-.18-.16c0-.35,0-1.1.18-1.22s.72.18,1.58.84a.17.17,0,0,0,.26-.18l-.06-.18,0-.08a2,2,0,0,0,1.31-.41c.22-.16.3-.22.65,0v1h-1.05a.16.16,0,0,0-.13.06A.17.17,0,0,0,190,7l-.65,2.27a.17.17,0,0,0,0,.15.16.16,0,0,0,.13.07h1.31a.16.16,0,0,0,.13-.07.17.17,0,0,0,0-.15l-.61-2.08h2l-.59,2.08a.17.17,0,0,0,.16.21h1.32a.17.17,0,0,0,.16-.21l-.65-2.2a.15.15,0,0,0,0,0,.17.17,0,0,0-.17-.17h-1V5.79a.17.17,0,0,0-.08-.14c-.57-.33-.8-.21-1.1,0a1.66,1.66,0,0,1-1.16.36h0a1.12,1.12,0,0,1,.22-.56,2.07,2.07,0,0,0,1.34-.21.65.65,0,0,1,.45.07,1.31,1.31,0,0,0,.54.11l.27,0a.18.18,0,0,0,.14.06.17.17,0,0,0,.16-.17c0-.2-.24-.22-.53-.25a1.62,1.62,0,0,1-.39-.06,1,1,0,0,0-.76-.09A1.46,1.46,0,0,1,189,4.88a.76.76,0,0,0-.22-.12,1.08,1.08,0,0,0-.29,0c-.11,0-.15,0-.19,0l-.08-.07a2.26,2.26,0,0,0-.77-.53.67.67,0,0,0-.19-.6.86.86,0,0,1,0-.72,1,1,0,0,0-.09-.87.83.83,0,0,0-.71-.35,1.1,1.1,0,0,0-1.1.7,1.39,1.39,0,0,0-.3,1.51l.08.14A2.28,2.28,0,0,0,184.06,5l-.14.25a.17.17,0,0,0,.05.23l.09,0a.17.17,0,0,0,.14-.08l.15-.27a1.85,1.85,0,0,1,1.09-1h0c.07.35.4.56.86.6l-.12.18A2.56,2.56,0,0,1,185.13,6a.53.53,0,0,0-.19-.05.91.91,0,0,0-.6.36,1,1,0,0,0-.06.11l-2-3.42-.91-1.73V1h-.29v.48l2.43,4.25a1.2,1.2,0,0,0-.23,1.5,1,1,0,0,0,.53.39,2,2,0,0,0-.4,1.75.48.48,0,0,0,.23.24,1.15,1.15,0,0,0,.42,1.22,7.1,7.1,0,0,0-.43,2.1,3.79,3.79,0,0,1-.39,1.58h-.37v.66h-.15a.17.17,0,0,0-.17.17c0,1.7-2.06,5-5.77,6.45h-1.28a.17.17,0,0,0-.17.17V22h-5.24a18.93,18.93,0,0,1,4.5-2.18.17.17,0,0,0,.13-.16v-.87l.82-.23a.17.17,0,0,0,.13-.16V16.86l.68-1.22a.17.17,0,0,0,0-.17.16.16,0,0,0-.16-.07A22.48,22.48,0,0,0,165.17,21a.17.17,0,0,0,0,.22l.85,1v1.1a.17.17,0,0,0,.17.17h2.65v3h-1.17l1.17,1.17v1.12h-1.08l1.08,1.61v1.85h-.95v2.57h.95v.68h-.95v2.57h.95v.68h-.95v2.58h.95V42h-.95v2.57h.95v.68h-.95v2.57h.95v.67h-.95v2.59h.95v.67h-.95v2.57h.95V55h-.95v2.58h.95v.69h-.95V60h-.69v2.91h9.46v0l6-3.31V46.32l-.16-1.87-.17,1.87v.31a3.7,3.7,0,0,1-.66-.09v-.28l-.16-1.88-.17,1.88v.19a7.35,7.35,0,0,1-.73-.28v-.3L180.46,44l-.16,1.87V46c-.24-.13-.49-.26-.73-.42v-.39l-.16-1.87-.16,1.87v.16a7.5,7.5,0,0,1-.65-.49v-.57l-.17-1.87-.16,1.87v.28a9,9,0,0,1-.84-.87v-.79l-.16-1.87-.16,1.87v.37a6,6,0,0,1-.45-.74v-.29h-.13c0-.09-.09-.18-.12-.27V41.6h.24l0-.43c1.29-4.29,4.19-6.87,8.92-6.87h0c4.87,0,7.68,2.58,8.92,6.87l0,.43h.22v.68h0V42c-.07.1-.16.18-.24.28h0c-.16.2-.33.41-.5.59l-.14-1.63-.16,1.87v.08a10,10,0,0,1-1.33,1.1l-.15-1.67-.16,1.87h0a11.45,11.45,0,0,1-1.33.73l-.15-1.71-.16,1.85c-.43.19-.87.36-1.33.51L189,44.16l-.16,1.8c-.43.13-.87.25-1.32.34l-.16-1.75-.16,1.82c-.44.08-.88.16-1.32.23l-.16-1.81-.16,1.87v16.2H204V60h-.69V58.32h-.94v-.69h.94V55h-.94v-.68h.94V51.8h-.94v-.67h.94V48.54h-.94v-.67h.94V45.3h-.94v-.68h.94V42h-.94v-.67h.94V38.79h-.94v-.68h.94V35.54h-.94v-.68h.94V32.29h-.94V30.44l1.08-1.61h-1.08V27.71l1.17-1.17h-1.17v-3h2.42a.17.17,0,0,0,.17-.17V22.28l.85-1.06A.17.17,0,0,0,205.8,21ZM190.59,9.16h-.87l.43-1.5Zm2.44,0h-.88l.43-1.51Zm-11.34,37.7a4,4,0,0,0,.66.09v6.36l-.66.23Zm0,8.85.66-.28v4l-.66.36Zm-1.06-9.21c.25.1.5.19.73.26v6.89l-.73.25Zm0,7.73.73-.26v1.54l-.73.32Zm0,1.92.73-.31v4.09l-.73.41ZM179.57,46c.24.14.49.28.73.39V54l-.73.25Zm0,8.64.73-.25V56l-.73.3Zm0,2,.73-.31v4.23l-.73.4Zm-1-11.33c.21.16.43.32.65.47v8.64l-.65.23Zm0,9.66.65-.22v1.7l-.65.27Zm0,2.08.65-.27v4.36l-.65.36Zm-1.17-12.83a8.72,8.72,0,0,0,.84.82v9.72l-.84.29Zm0,11.15.84-.28v1.78l-.84.35Zm0,2.17.84-.35v4.49l-.84.46Zm9.76,5h-1.31V57.86h1.31Zm0-7.25h-1.31V46.95c.45-.06.88-.14,1.31-.22Zm1.64,7.25h-1.31V57.86h1.31Zm0-5h-1.31V55.61h1.31Zm0-2.24h-1.31V46.66c.45-.1.88-.21,1.31-.33Zm1.64,7.25h-1.31V57.86h1.31Zm0-5h-1.31V55.61h1.31Zm0-2.24h-1.31V46.23a13.85,13.85,0,0,0,1.31-.48Zm1.64,7.25h-1.31V57.86h1.31Zm0-5h-1.31V55.61h1.31Zm0-2.24h-1.32V45.6a11.25,11.25,0,0,0,1.32-.72Zm1.64,7.25h-1.31V57.86h1.31Zm0-5h-1.31V55.61h1.31Zm0-2.24h-1.31V44.66a9.45,9.45,0,0,0,1.31-1.1Zm1.84-37V17c3.1.74,7.22,3.08,8.87,5h-1.66A19.23,19.23,0,0,0,195.58,18.32Zm.95,1.26v-.63a19.18,19.18,0,0,1,5.74,3.1h-.87A19.45,19.45,0,0,0,196.53,19.58Zm-8-2.71a10.94,10.94,0,0,0,5,4.95h-4.32v-1a.17.17,0,0,0-.17-.17h-.54ZM185.84,4.25A.36.36,0,0,0,186,4.1a.57.57,0,0,0,0-.45l0,0a.14.14,0,0,0-.12-.12.84.84,0,0,1,0-.56c0-.14.1-.21.12-.21a.44.44,0,0,1,.27.09c.07,0,.09.08.09.1a.17.17,0,0,0,.33-.06.5.5,0,0,0-.23-.32.78.78,0,0,0-.53-.14c-.34.09-.44.62-.42.93a.51.51,0,0,0,.2.44.46.46,0,0,1,0,.13l-.12,0h0a.15.15,0,0,0-.15-.14.59.59,0,0,1-.2-.36,1.2,1.2,0,0,1,.33-1,.17.17,0,0,0,0-.06.76.76,0,0,1,.79-.49.5.5,0,0,1,.43.21.62.62,0,0,1,.05.56,1.13,1.13,0,0,0,0,1.05c.15.18.14.27.1.37a1,1,0,0,0-.52.36A.91.91,0,0,1,185.84,4.25Zm.61.88c.1-.15.2-.29.29-.42h0a.75.75,0,0,1,.42-.32c.22,0,.62.32.79.47l.08.08a.56.56,0,0,0,.42.12.49.49,0,0,1,.2,0l.12.07a2.32,2.32,0,0,0,.32.19,1.16,1.16,0,0,0-.22.86c-.78-.56-1.22-.71-1.52-.56s-.37.59-.36,1.25a2.64,2.64,0,0,0-1.5-.41.64.64,0,0,0,0-.15s0-.06-.07-.09A3.08,3.08,0,0,0,186.46,5.13Zm-1,1.68a2.31,2.31,0,0,1,1.83.73,1.05,1.05,0,0,1,.25,1s-.09.19-.17.4a.7.7,0,0,0-.58-.49s-1.11-.1-1.29-.95a.16.16,0,0,0,0-.08.43.43,0,0,0-.09-.23.57.57,0,0,1-.07-.13A.5.5,0,0,0,185.43,6.81Zm-.83-.28a.6.6,0,0,1,.36-.23h0a.18.18,0,0,1,.19.14.3.3,0,0,1-.08.31.32.32,0,0,0-.15.2.47.47,0,0,0,.09.35l-.18,0-.15-.12c-.1-.08-.22-.17-.23-.24A.56.56,0,0,1,184.6,6.53Zm-1,.52a.85.85,0,0,1,.13-1l.41.71h0a.75.75,0,0,0,0,.25.56.56,0,0,0,.23.35A.73.73,0,0,1,183.6,7ZM184,9.63a.44.44,0,0,0,0-.17.17.17,0,0,0-.16-.13s-.08,0-.12-.09a1.84,1.84,0,0,1,.45-1.55h0a1.37,1.37,0,0,0,.45-.09h0a3.29,3.29,0,0,1,.06,1.87,3.23,3.23,0,0,1-.35,1.15A.81.81,0,0,1,184,9.63ZM184,13a6.75,6.75,0,0,1,.41-2,.37.37,0,0,0,.22-.15,5.12,5.12,0,0,0,.4-3.17l.1,0a1.76,1.76,0,0,0,1.57,1.14c.33,0,.4.48.4.78a1.57,1.57,0,0,0-.06.68,10.7,10.7,0,0,1-.24,3.75.17.17,0,0,0,.11.19.89.89,0,0,1,.51.38h-3.8A4.05,4.05,0,0,0,184,13Zm-.76,1.89h4.68v.33h-4.68ZM182.8,21a.17.17,0,0,0,.17-.17V15.52h5.28v5.29a.17.17,0,0,0,.17.17h.54v.84h-6.68V21Zm-.17-4.13v3.8h-.53a.17.17,0,0,0-.17.17v1h-4.32A10.92,10.92,0,0,0,182.63,16.85Zm-6.91,6.52V22.15h19.76v1.28H175.72Zm-.17.39h20.09a.17.17,0,0,0,.17-.17v-.06h2v.77H173.37v-.77h2v.06A.17.17,0,0,0,175.56,23.76Zm19.31,17.51-.2-1.91h3.17v1.91Zm3-2.25h-3.09c-.05-.23-.11-.45-.18-.67h3.27V39Zm-3.43-1-.41-.85.77-1.06h3.07V38Zm3.43-2.25h-3.24l-.72,1q-.17-.29-.35-.56l.86-1.11h3.45v.67ZM192,34.91l1.32-2h4.51v1.91h-3.61l-1.1,1.4Zm5.83-2.38h-4.69l-1.26,2q-.32-.25-.66-.47l1.37-2.27h5.24v.79Zm-24.46,8.75V39.36h3.17l-.2,1.91Zm0-9.87v-.84h7.46l1,2.76-1.42.79L178.8,31.4Zm0,13.45h2.7v.68h-2.7Zm0,3.26h2.7v.67h-2.7Zm0,3.25h2.7V52h-2.7Zm0,3.25h2.7v.68h-2.7Zm0,3.25h2.7v.7h-2.7Zm5.83-23-1.13,1.27L177,34.77h-3.61V32.86h4.51ZM173.37,38V36.11h3.07l.75,1.06-.41.85Zm0,1v-.67h3.26c-.07.22-.13.44-.18.67Zm3.25-3.25h-3.25V35.1h3.45l.86,1.11c-.13.18-.24.37-.36.56Zm1.45-3.25h-4.69v-.79h5.24L180,34c-.22.15-.44.3-.66.47Zm3.12-2h1.28l.33,2.17-.72.24Zm6,0h1.28L188,33,187,33Zm-.53,2.72h-2l-.19-2.72h2.39Zm-2.38-.3-1.06.06-.38-2.48h1.29Zm4.52-2.42H190L189.14,33l-.72-.24Zm.61,2.76,1-2.76h7.46v.84H192.4l-1.63,2.71Zm-.56-3.1H173.52l.94-1.39h-1.09v-1h24.46v1h-1.08l.94,1.39Zm-15.2-2.75.94-.94h-1.17v-1.9h24.46v1.9h-1.17l.93.94Zm.84-7.9A19.53,19.53,0,0,0,169.58,22h-.87a19.12,19.12,0,0,1,5.73-3.1Zm.95-1.26A19.19,19.19,0,0,0,168.18,22h-1.66c1.64-1.94,5.76-4.28,8.86-5Zm-9.22,3.62-.66-.81a22.4,22.4,0,0,1,10.43-5.35l-.5.9C172.16,17.41,167.84,19.88,166.17,21.94Zm.17,1.26v-.82h9v.82Zm2.82,1.11v-.77H173v.77Zm3.88.33v1.9h-3.88v-1.9Zm-4.58,2.23h5.28l-.61.61h-4.07Zm4.57.94v1h-3.88v-1Zm-4.66,1.36h5.45l-.71,1.06h-4Zm-.16,5.36v-1.9H173v1.9Zm0,3.25V35.87H173v1.91Zm0,3.25V39.13H173V41Zm0,3.25V42.38H173v1.91Zm0,3.25V45.63H173v1.91Zm0,3.26V48.87H173v1.92Zm0,3.25V52.13H173V54Zm0,3.26V55.38H173v1.91ZM173,60.51a1.42,1.42,0,0,0-.17,1.57l.17.32v.14h-5.51V60.29H173Zm0-.55h-4.82V58.65H173Zm0-1.64h-3.88v-.69H173v.23h0ZM173,55h-3.88v-.68H173v.24h0Zm0-3.25h-3.88v-.67H173v.23h0Zm0-3.26h-3.88v-.67H173v.24h0Zm0-3.24h-3.88v-.68H173v.23h0ZM173,42h-3.88v-.67H173v.23h0Zm0-3.25h-3.88v-.68H173v.24h0Zm0-3.25h-3.88v-.68H173v.24h0Zm0-3.25h-3.88V30.56H173v1.17h0Zm.43,30.23-.12-.24h0l-.17-.37h0a1.09,1.09,0,0,1,.16-1.25h0a1.13,1.13,0,0,1,.31-.24,1.1,1.1,0,0,1,1.49.48l.83,1.61Zm2.85,0-.9-1.74a1.43,1.43,0,0,0-.84-.71,1.46,1.46,0,0,0-.44-.07,1.44,1.44,0,0,0-.66.16l-.12.07V60h0V58.89h3Zm0-5h-3v-1.9h3Zm0-3.25h-3V52.36h3Zm0-3.25h-3V49.11h3Zm0-3.25h-3V45.86h3Zm0-3.26h-3v-1.9h3Zm.78,17.78-.45.24v-4h-.25v-.7h.25l.45-.19Zm0-5-.45.19V55.61l.45-.15Zm0-13.54V55.13l-.46.16h-.25v-.68h.25V52h-.25v-.68h.25V48.78h-.25v-.67h.25V45.53h-.25v-.68h.25V43.12A6.76,6.76,0,0,0,177.11,43.79Zm-1-1.5h-2.7V41.6h2.7Zm19-.68h2.71v.68h-2.71Zm2.71,17h-2.71v-.7h2.71v.7Zm0-15.94v1.9h-3v-1.9Zm0,3.25v1.91h-3V45.86Zm0,3.25V51h-3V49.11Zm-3,3.25h3v1.91h-3Zm0,3.26h3v1.9h-3Zm0,3.27h3v1.4l-.24-.15A1.41,1.41,0,0,0,196.5,60a1.45,1.45,0,0,0-.85.71l-.78,1.5Zm3-3.6h-2.71v-.68h2.71v.68Zm0-3.26h-2.71v-.68h2.71V52Zm0-3.25h-2.71v-.67h2.71v.67Zm0-3.25h-2.71v-.68h2.71v.68Zm-3.77-2.31c.17-.18.32-.38.48-.58v2.21h.24v.68h-.24v2.58h.24v.67h-.24v2.57h.24V52h-.24v2.58h.24v.68h-.72Zm0,12.39h.48v1.92h-.48Zm0,6.92V57.86h.72v.7h-.24v4Zm3.85-.6-.07.14-.24.45h-2.5l.84-1.61a1.13,1.13,0,0,1,.65-.55,1.07,1.07,0,0,1,.83.07,1.1,1.1,0,0,1,.42.37h0A1.1,1.1,0,0,1,197.92,61.93Zm5.76-1.64v2.24h-5.51v-.35l0-.1a1.43,1.43,0,0,0,0-1.42v-.37ZM203,60h-4.82V58.65H203ZM202,58.32h-3.88v-.69H202Zm.94-1h-4.82V55.38H203ZM202,55h-3.88v-.68H202Zm.94-1h-4.82V52.13H203ZM202,51.8h-3.88v-.67H202Zm.94-1h-.74l0,0,0,0h-4V48.87H203ZM202,48.54h-3.88v-.67H202Zm.94-1h-4.82V45.63H203ZM202,45.3h-3.88v-.68H202Zm.94-1h-4.82V42.38H203ZM202,42h-3.88v-.67H202Zm.94-1h-4.82V39.13H203ZM202,38.79h-3.88v-.68H202Zm.94-1h-4.82V35.87H203ZM202,35.54h-3.88v-.68H202Zm.94-1h-4.82v-1.9H203Zm-4.82-2.24V30.56H202v1.73Zm4-2.07h-4l-.71-1.06h5.46Zm-4-1.39v-1H202v1Zm4.58-2-.6.61h-4.07l-.6-.61h5.28Zm-.7-2.23v1.9h-3.88v-1.9Zm-3.88-.33v-.77H202v.77Zm6.46-1.11h-8.81v-.82h8.81Zm.18-1.26c-1.68-2.07-6-4.53-9.28-5.27l-.5-.9a22.41,22.41,0,0,1,10.43,5.35Z"/><path d="M4.41,98.51c.89,0,1.41-.11,1.41-1.32V89.73c0-1.21-.52-1.33-1.41-1.33v-.32H8.66v.32c-.87,0-1.41.11-1.41,1.33v7.47c0,1.21.53,1.32,1.41,1.32v.32H4.41Z"/><path d="M9.24,98.56c.68,0,1.23-.15,1.23-1.2V93c0-1-.74-1-1.23-1.05v-.27l2.49-.39V93h0a2.26,2.26,0,0,1,2.1-1.73.78.78,0,0,1,.81.74.73.73,0,0,1-.77.76c-.49,0-.69-.39-.92-.39s-1.24.65-1.24,2.57v2.44c0,1,.55,1.2,1.23,1.2v.27H9.24Z"/><path d="M15.65,88.84a.92.92,0,1,1,.92.92.91.91,0,0,1-.92-.92m-.89,9.73c.68,0,1.23-.15,1.23-1.2V93c0-1-.74-1-1.23-1.05v-.27l2.49-.39v6.12c0,1,.55,1.2,1.23,1.2v.27H14.76Z"/><path d="M23.47,93.22a1.67,1.67,0,0,0-1.65-1.44c-.6,0-1.34.26-1.34,1,0,.92,1.39,1.39,2.29,1.91a2.22,2.22,0,0,1,1.5,2.12c0,1.39-1.18,2.18-3,2.18a7,7,0,0,1-2.08-.29l-.11-1.79h.4a1.87,1.87,0,0,0,1.91,1.55A1.48,1.48,0,0,0,23,97.16c0-1.15-2.07-1.71-3-2.38a1.66,1.66,0,0,1-.84-1.53c0-1.5,1.36-2,2.68-2a7.51,7.51,0,0,1,1.86.27l.11,1.7Z"/><path d="M25,98.56c.68,0,1.23-.15,1.23-1.2v-8c0-1-.76-1-1.23-1V88l2.49-.39v5.77h0a3,3,0,0,1,2.57-2.13c1.7,0,1.86.94,1.86,2.44v3.68c0,1,.55,1.2,1.23,1.2v.27H29.43v-.27c.66,0,1.23-.15,1.23-1.2V94c0-1.39,0-2-1.08-2s-2.12,1.84-2.12,3.38v2c0,1,.55,1.2,1.23,1.2v.27H25Z"/><path d="M39.6,98.51c1,0,1.55-.11,1.55-1.32V88.71h-1c-1.65,0-1.89.66-2.05,1.57h-.4l.11-2.2h8.09l.11,2.2h-.4c-.1-1-.58-1.57-2.17-1.57h-.87v8.48c0,1.21.58,1.32,1.55,1.32v.32H39.6Z"/><path d="M50.37,95.25c-.76,0-2.83.16-2.83,1.66a1.28,1.28,0,0,0,1.1,1.41,1.93,1.93,0,0,0,1.73-2.12Zm2.39,3.6a4.59,4.59,0,0,1-1.18.15c-.94,0-1.21-.49-1.21-1.18h0A2.58,2.58,0,0,1,48,99a1.83,1.83,0,0,1-1.94-1.83c0-2.34,3-2.34,4.26-2.46V94.1c0-1.13,0-2.33-1.37-2.33-1,0-1.13.42-1.13.94a.76.76,0,0,1-.76.84.73.73,0,0,1-.78-.73c0-1.05,1.57-1.58,2.68-1.58,2.21,0,2.62,1.07,2.62,2.57v4c0,.57.19.76.69.76a2.09,2.09,0,0,0,.44-.06Z"/><path d="M53,98.56c1,0,1.31-.42,2-1.24l1.75-2.2-1.57-2.26a2.17,2.17,0,0,0-1.89-1.18v-.27H57v.27c-.47,0-.78,0-.78.34a1.43,1.43,0,0,0,.32.69l1,1.42,1.21-1.52A1,1,0,0,0,59,92c0-.26-.29-.36-.79-.36v-.27h3.18v.27a1.83,1.83,0,0,0-1.66.87L57.95,94.8l1.87,2.72a1.92,1.92,0,0,0,1.81,1.05v.27H57.9v-.27c.37,0,.79-.06.79-.37a.81.81,0,0,0-.19-.47l-1.32-2-1.31,1.65a1.54,1.54,0,0,0-.39.74c0,.31.15.41.76.41v.27H53Z"/><path d="M71.33,95.25c-.76,0-2.83.16-2.83,1.66a1.28,1.28,0,0,0,1.1,1.41,1.93,1.93,0,0,0,1.73-2.12Zm2.39,3.6a4.58,4.58,0,0,1-1.18.15c-.94,0-1.21-.49-1.21-1.18h0A2.58,2.58,0,0,1,69,99a1.83,1.83,0,0,1-1.94-1.83c0-2.34,3-2.34,4.26-2.46V94.1c0-1.13,0-2.33-1.37-2.33-1,0-1.13.42-1.13.94a.76.76,0,0,1-.76.84.73.73,0,0,1-.78-.73c0-1.05,1.57-1.58,2.68-1.58,2.21,0,2.62,1.07,2.62,2.57v4c0,.57.19.76.69.76a2.09,2.09,0,0,0,.44-.06Z"/><path d="M74.35,98.56c.68,0,1.23-.15,1.23-1.2V93c0-1-.76-1-1.23-1.05v-.27l2.49-.39v2.13h0a3,3,0,0,1,2.55-2.13c1.71,0,1.87.94,1.87,2.44v3.68c0,1,.55,1.2,1.23,1.2v.27H78.81v-.27c.68,0,1.23-.15,1.23-1.2V94c0-1.39,0-2-1.08-2s-2.12,1.83-2.12,3.36v2c0,1,.55,1.2,1.23,1.2v.27H74.35Z"/><path d="M86.55,98.4c1.31,0,1.68-1.91,1.68-3.28,0-1.53-.44-3.28-1.68-3.28s-1.75,1.92-1.75,3.28.26,3.28,1.75,3.28m1.68-.6h0A2.21,2.21,0,0,1,86.34,99c-2.25,0-3-1.91-3-3.88s.73-3.88,3-3.88a2.17,2.17,0,0,1,1.86,1.24h0V89.32c0-1-.76-1-1.23-1.05V88l2.49-.39v9.68c0,1,.74,1,1.23,1.05v.27L88.23,99Z"/><path d="M103.93,98.56A8.22,8.22,0,0,1,101,99c-3.23,0-4.78-2.46-4.78-5.9,0-3,1-5.19,4.43-5.19a11.72,11.72,0,0,1,3.1.45l.15,2.54h-.4a2.78,2.78,0,0,0-2.86-2.36c-2.6,0-2.81,2.76-2.81,4.43,0,2.08.45,5.3,4,5.3a5.09,5.09,0,0,0,2.08-.4Z"/><path d="M110.41,97.06h0A2.53,2.53,0,0,1,108,99c-1.36,0-2.07-.94-2.07-2.44V93c0-1-.74-1-1.23-1v-.27l2.49-.39v5c0,1.34.45,2,1.29,2,1,0,2-1.52,2-3V93c0-1-.74-1-1.23-1v-.27l2.49-.39v6c0,1,.74,1,1.23,1.05v.27l-2.49.39Z"/><path d="M117.87,93.22a1.67,1.67,0,0,0-1.65-1.44c-.6,0-1.34.26-1.34,1,0,.92,1.39,1.39,2.29,1.91a2.22,2.22,0,0,1,1.5,2.12c0,1.39-1.18,2.18-3,2.18a7,7,0,0,1-2.08-.29l-.11-1.79h.4a1.87,1.87,0,0,0,1.91,1.55,1.48,1.48,0,0,0,1.6-1.31c0-1.15-2.07-1.71-3-2.38a1.66,1.66,0,0,1-.84-1.53c0-1.5,1.36-2,2.68-2a7.52,7.52,0,0,1,1.86.27l.11,1.7Z"/><path d="M123.93,98.93a6.2,6.2,0,0,1-.78.07c-2.44,0-2.57-.6-2.57-2.41V91.94h-1.31v-.53c1.31,0,2.15-.66,2.15-2.42h.42v2.42h2.08v.53h-2.08V97c0,1.23.55,1.42,1.44,1.42a4.85,4.85,0,0,0,.65-.08Z"/><path d="M128.1,98.47c1.62,0,1.94-2,1.94-3.35s-.32-3.34-1.94-3.34-1.94,2-1.94,3.34.32,3.35,1.94,3.35m-3.38-3.35c0-2.42,1.31-3.88,3.38-3.88s3.38,1.45,3.38,3.88S130.17,99,128.1,99s-3.38-1.45-3.38-3.88"/><path d="M132.64,98.56c.68,0,1.23-.15,1.23-1.2V93c0-1-.76-1-1.23-1.05v-.27l2.49-.39v2h0c.21-.55.89-2,2.29-2,1.12,0,1.87.44,1.87,2h0a2.71,2.71,0,0,1,2.29-2c1.47,0,1.87.45,1.87,2v4.15c0,1,.57,1.2,1.23,1.2v.27H141v-.27c.68,0,1.23-.15,1.23-1.2V94c0-1.24-.15-2-1-2s-1.91,1.42-1.91,3.36v2c0,1,.55,1.2,1.23,1.2v.27h-3.72v-.27c.68,0,1.23-.15,1.23-1.2V94c0-1.39,0-2-1-2s-2,1.57-2,3.36v2c0,1,.55,1.2,1.23,1.2v.27h-3.72Z"/><path d="M149.72,93.22a1.67,1.67,0,0,0-1.65-1.44c-.6,0-1.34.26-1.34,1,0,.92,1.39,1.39,2.29,1.91a2.22,2.22,0,0,1,1.5,2.12c0,1.39-1.18,2.18-3,2.18a7,7,0,0,1-2.08-.29l-.11-1.79h.4a1.87,1.87,0,0,0,1.91,1.55,1.48,1.48,0,0,0,1.6-1.31c0-1.15-2.07-1.71-3-2.38a1.66,1.66,0,0,1-.84-1.53c0-1.5,1.36-2,2.68-2a7.52,7.52,0,0,1,1.86.27l.11,1.7Z"/><path d="M11.74,81.84a7.88,7.88,0,0,1-2.79.42c-3.12,0-4.61-2.37-4.61-5.69,0-2.88.93-5,4.27-5a11.31,11.31,0,0,1,3,.44l.14,2.45h-.39a2.69,2.69,0,0,0-2.76-2.27c-2.51,0-2.71,2.66-2.71,4.27,0,2,.44,5.11,3.85,5.11a4.91,4.91,0,0,0,2-.39Z"/><path d="M16.19,71.91c.14-.47.27-.64.81-.64a.55.55,0,0,1,.55.48c0,.23-.09.36-.31.65l-.9,1.28h-.67Zm1,6.73c-.73,0-2.73.16-2.73,1.6a1.23,1.23,0,0,0,1.06,1.36,1.86,1.86,0,0,0,1.67-2Zm2.31,3.47a4.54,4.54,0,0,1-1.14.14c-.9,0-1.17-.47-1.17-1.14h0a2.48,2.48,0,0,1-2.21,1.14,1.77,1.77,0,0,1-1.87-1.76c0-2.26,2.93-2.26,4.11-2.37v-.59c0-1.09,0-2.24-1.32-2.24-1,0-1.09.41-1.09.9A.74.74,0,0,1,14,77a.7.7,0,0,1-.75-.7c0-1,1.51-1.53,2.59-1.53,2.13,0,2.52,1,2.52,2.48v3.86c0,.55.19.73.67.73a1.94,1.94,0,0,0,.42-.06Z"/><path d="M21,72.46a.89.89,0,1,1,.89.89.88.88,0,0,1-.89-.89m-.86,9.38c.65,0,1.18-.14,1.18-1.15V76.43c0-.93-.72-1-1.18-1v-.26l2.4-.37v5.9c0,1,.53,1.15,1.18,1.15v.27H20.12Z"/><path d="M24.33,81.84c.65,0,1.18-.14,1.18-1.15V76.43c0-.93-.73-1-1.18-1v-.26l2.4-.37v2.06h0a2.85,2.85,0,0,1,2.46-2.06c1.65,0,1.81.9,1.81,2.35v3.55c0,1,.53,1.15,1.18,1.15v.27H28.63v-.27c.65,0,1.18-.14,1.18-1.15V77.48c0-1.34,0-1.95-1-1.95s-2,1.76-2,3.24v1.92c0,1,.53,1.15,1.18,1.15v.27H24.33Z"/><path d="M41.7,78.64c-.73,0-2.73.16-2.73,1.6A1.23,1.23,0,0,0,40,81.61a1.86,1.86,0,0,0,1.67-2ZM44,82.12a4.54,4.54,0,0,1-1.14.14c-.9,0-1.17-.47-1.17-1.14h0a2.48,2.48,0,0,1-2.21,1.14,1.77,1.77,0,0,1-1.87-1.76c0-2.26,2.93-2.26,4.11-2.37v-.59c0-1.09,0-2.24-1.32-2.24-1,0-1.09.41-1.09.9a.74.74,0,0,1-.73.81.7.7,0,0,1-.75-.7c0-1,1.51-1.53,2.59-1.53,2.13,0,2.52,1,2.52,2.48v3.86c0,.55.19.73.67.73a1.94,1.94,0,0,0,.42-.06Z"/><path d="M47.92,79.25c1.31,0,1.48-1,1.48-1.85,0-1.17-.41-2.1-1.53-2.1s-1.46.9-1.46,1.81c0,1.18.39,2.15,1.51,2.15M46.56,82a1.38,1.38,0,0,0-.75,1.2c0,.92.83,1.71,2.18,1.71s2.73-.73,2.73-1.85c0-.79-.65-1.06-1.43-1.06Zm2.7-1.11c.75,0,2.48,0,2.48,1.76S50,85.39,47.92,85.39c-1.53,0-3.12-.58-3.12-2A1.81,1.81,0,0,1,46,81.78a1.21,1.21,0,0,1-.67-1.11A2.35,2.35,0,0,1,46,79.31a2.33,2.33,0,0,1-.9-2.09c0-2,1.46-2.45,2.95-2.45a3,3,0,0,1,1.6.39c.25-.59.62-1.67,1.57-1.67a.7.7,0,0,1,.75.75.66.66,0,0,1-.73.7c-.41,0-.5-.22-.7-.22s-.48.45-.56.7a2.62,2.62,0,0,1,.7,1.87c0,1.57-1,2.46-2.85,2.46a3.42,3.42,0,0,1-1.42-.23,1.13,1.13,0,0,0-.28.7c0,.62.78.62,1.28.62Z"/><path d="M57.81,80.39h0a2.44,2.44,0,0,1-2.34,1.87c-1.31,0-2-.9-2-2.35V76.43c0-.93-.72-1-1.18-1v-.26l2.4-.37v4.78c0,1.29.44,1.9,1.25,1.9,1,0,1.9-1.46,1.9-2.88V76.43c0-.93-.72-1-1.18-1v-.26l2.4-.37v5.83c0,.93.72,1,1.18,1v.26l-2.4.37Z"/><path d="M65.06,76.68a1.61,1.61,0,0,0-1.59-1.39c-.58,0-1.29.25-1.29,1,0,.89,1.34,1.34,2.21,1.84a2.15,2.15,0,0,1,1.45,2c0,1.34-1.14,2.1-2.87,2.1A6.67,6.67,0,0,1,61,82l-.11-1.73h.39a1.81,1.81,0,0,0,1.84,1.5,1.43,1.43,0,0,0,1.54-1.26c0-1.11-2-1.65-2.85-2.29A1.61,1.61,0,0,1,61,76.71c0-1.45,1.31-1.93,2.59-1.93a7.21,7.21,0,0,1,1.79.26l.11,1.64Z"/><path d="M78.94,81.84a7.89,7.89,0,0,1-2.79.42c-3.12,0-4.61-2.37-4.61-5.69,0-2.88.93-5,4.27-5a11.31,11.31,0,0,1,3,.44l.14,2.45h-.39a2.69,2.69,0,0,0-2.76-2.27c-2.51,0-2.71,2.66-2.71,4.27,0,2,.44,5.11,3.85,5.11a4.92,4.92,0,0,0,2-.39Z"/><path d="M85.22,80.39h0a2.44,2.44,0,0,1-2.34,1.87c-1.31,0-2-.9-2-2.35V76.43c0-.93-.72-1-1.18-1v-.26l2.4-.37v4.78c0,1.29.44,1.9,1.25,1.9,1,0,1.9-1.46,1.9-2.88V76.43c0-.93-.72-1-1.18-1v-.26l2.4-.37v5.83c0,.93.72,1,1.18,1v.26l-2.4.37Z"/><path d="M92.46,76.68a1.61,1.61,0,0,0-1.59-1.39c-.58,0-1.29.25-1.29,1,0,.89,1.34,1.34,2.21,1.84a2.15,2.15,0,0,1,1.45,2c0,1.34-1.14,2.1-2.87,2.1a6.66,6.66,0,0,1-2-.28l-.11-1.73h.39a1.81,1.81,0,0,0,1.84,1.5A1.43,1.43,0,0,0,92,80.48c0-1.11-2-1.65-2.85-2.29a1.61,1.61,0,0,1-.81-1.48c0-1.45,1.31-1.93,2.59-1.93a7.23,7.23,0,0,1,1.79.26l.11,1.64Z"/><path d="M98.34,82.2a6,6,0,0,1-.75.06c-2.35,0-2.48-.58-2.48-2.32V75.45H93.85v-.51c1.26,0,2.07-.64,2.07-2.34h.41v2.34h2v.51h-2v4.92c0,1.18.53,1.37,1.39,1.37a4.49,4.49,0,0,0,.62-.08Z"/><path d="M103.28,78.64c-.73,0-2.73.16-2.73,1.6a1.23,1.23,0,0,0,1.06,1.36,1.86,1.86,0,0,0,1.67-2Zm2.31,3.47a4.54,4.54,0,0,1-1.14.14c-.9,0-1.17-.47-1.17-1.14h0A2.48,2.48,0,0,1,101,82.26a1.77,1.77,0,0,1-1.87-1.76c0-2.26,2.93-2.26,4.11-2.37v-.59c0-1.09,0-2.24-1.32-2.24-1,0-1.09.41-1.09.9a.73.73,0,0,1-.73.81.7.7,0,0,1-.75-.7c0-1,1.51-1.53,2.59-1.53,2.13,0,2.52,1,2.52,2.48v3.86c0,.55.19.73.67.73a1.94,1.94,0,0,0,.42-.06Z"/><path d="M107.06,72.46a.89.89,0,1,1,.89.89.88.88,0,0,1-.89-.89m-.86,9.38c.65,0,1.18-.14,1.18-1.15V76.43c0-.93-.72-1-1.18-1v-.26l2.4-.37v5.9c0,1,.53,1.15,1.18,1.15v.27h-3.58Z"/><path d="M110.4,81.84c.65,0,1.18-.14,1.18-1.15V76.43c0-.93-.73-1-1.18-1v-.26l2.4-.37v1.88h0c.2-.53.86-1.88,2.21-1.88,1.07,0,1.81.42,1.81,1.9h0a2.61,2.61,0,0,1,2.21-1.9c1.42,0,1.81.44,1.81,1.9v4c0,1,.55,1.15,1.18,1.15v.27H118.5v-.27c.65,0,1.18-.14,1.18-1.15V77.48c0-1.2-.14-1.95-1-1.95s-1.84,1.37-1.84,3.24v1.92c0,1,.53,1.15,1.18,1.15v.27h-3.58v-.27c.65,0,1.18-.14,1.18-1.15V77.48c0-1.34,0-1.95-.92-1.95S112.8,77,112.8,78.77v1.92c0,1,.53,1.15,1.18,1.15v.27H110.4Z"/><path d="M127.15,81.84c.65,0,1.18-.14,1.18-1.15V76.43c0-.93-.73-1-1.18-1v-.26l2.4-.37v2.06h0A2.84,2.84,0,0,1,132,74.78c1.65,0,1.81.9,1.81,2.35v3.55c0,1,.53,1.15,1.18,1.15v.27h-3.58v-.27c.65,0,1.18-.14,1.18-1.15V77.48c0-1.34,0-1.95-1-1.95s-2,1.76-2,3.24v1.92c0,1,.53,1.15,1.18,1.15v.27h-3.58Z"/><path d="M140,78.64c-.73,0-2.73.16-2.73,1.6a1.23,1.23,0,0,0,1.06,1.36,1.86,1.86,0,0,0,1.67-2Zm2.31,3.47a4.54,4.54,0,0,1-1.14.14c-.9,0-1.17-.47-1.17-1.14h0a2.48,2.48,0,0,1-2.21,1.14,1.77,1.77,0,0,1-1.87-1.76c0-2.26,2.93-2.26,4.11-2.37v-.59c0-1.09,0-2.24-1.32-2.24-1,0-1.09.41-1.09.9a.74.74,0,0,1-.73.81.7.7,0,0,1-.75-.7c0-1,1.51-1.53,2.59-1.53,2.13,0,2.52,1,2.52,2.48v3.86c0,.55.19.73.67.73a1.94,1.94,0,0,0,.42-.06Z"/><path d="M147.3,81.84c.65,0,1.18-.14,1.18-1.15V72.93c0-.92-.73-1-1.18-1v-.26l2.4-.37v5.56h0a2.85,2.85,0,0,1,2.48-2.06c1.63,0,1.79.9,1.79,2.35v3.55c0,1,.53,1.15,1.18,1.15v.27H151.6v-.27c.64,0,1.18-.14,1.18-1.15V77.48c0-1.34,0-1.95-1-1.95s-2,1.78-2,3.26v1.9c0,1,.53,1.15,1.18,1.15v.27H147.3Z"/><path d="M159.54,68.7c.14-.47.27-.64.81-.64a.56.56,0,0,1,.55.48c0,.23-.09.36-.31.65l-.9,1.28H159Zm-4.13,13.09c.84,0,1.36-.11,1.36-1.28v-7.2c0-1.17-.51-1.28-1.36-1.28v-.31h7.06l.11,1.9h-.39c-.19-1-.7-1.29-1.81-1.29H159c-.81,0-.86.17-.86,1.31v2.73h2c1,0,1.42-.23,1.42-1.31h.33v3.23h-.33c0-.87-.37-1.31-1.42-1.31h-2v3.21c0,1.22.08,1.31.86,1.31h1.5c1.2,0,1.68-.37,1.92-1.45h.39l-.11,2.06h-7.29Z"/><path d="M164.76,72.46a.89.89,0,1,1,.89.89.88.88,0,0,1-.89-.89m-.86,9.38c.65,0,1.18-.14,1.18-1.15V76.43c0-.93-.72-1-1.18-1v-.26l2.4-.37v5.9c0,1,.53,1.15,1.18,1.15v.27H163.9Z"/><path d="M168,81.84c.65,0,1.18-.14,1.18-1.15V76.43c0-.93-.72-1-1.18-1v-.26l2.4-.37v1.67h0a2.18,2.18,0,0,1,2-1.67.76.76,0,0,1,.78.72.71.71,0,0,1-.75.73c-.47,0-.67-.37-.89-.37s-1.2.62-1.2,2.48v2.35c0,1,.53,1.15,1.18,1.15v.27H168Z"/><path d="M178.05,77.19c0-.83-.28-1.9-1.48-1.9s-1.67,1.32-1.67,1.9ZM179.24,82a5,5,0,0,1-1.85.28c-2.42,0-3.77-1.32-3.77-3.94,0-2.27.92-3.54,3.16-3.54a2.44,2.44,0,0,1,2.67,2.59v.34h-4.53c0,1.31.64,4,3.24,4a2.58,2.58,0,0,0,1.09-.2Z"/><path d="M184.61,78.64c-.73,0-2.73.16-2.73,1.6a1.24,1.24,0,0,0,1.06,1.36,1.86,1.86,0,0,0,1.67-2Zm2.31,3.47a4.55,4.55,0,0,1-1.14.14c-.9,0-1.17-.47-1.17-1.14h0a2.48,2.48,0,0,1-2.21,1.14,1.77,1.77,0,0,1-1.87-1.76c0-2.26,2.93-2.26,4.11-2.37v-.59c0-1.09,0-2.24-1.32-2.24-1,0-1.09.41-1.09.9a.73.73,0,0,1-.73.81.7.7,0,0,1-.75-.7c0-1,1.51-1.53,2.59-1.53,2.13,0,2.52,1,2.52,2.48v3.86c0,.55.19.73.67.73a1.94,1.94,0,0,0,.42-.06Z"/><path d="M187.57,81.84c.65,0,1.18-.14,1.18-1.15V76.43c0-.93-.73-1-1.18-1v-.26l2.4-.37v2.06h0a2.85,2.85,0,0,1,2.46-2.06c1.65,0,1.81.9,1.81,2.35v3.55c0,1,.53,1.15,1.18,1.15v.27h-3.58v-.27c.65,0,1.18-.14,1.18-1.15V77.48c0-1.34,0-1.95-1-1.95s-2,1.76-2,3.24v1.92c0,1,.53,1.15,1.18,1.15v.27h-3.58Z"/><path d="M196.08,81.84c.65,0,1.18-.14,1.18-1.15V76.43c0-.93-.73-1-1.18-1v-.26l2.4-.37v2.06h0A2.85,2.85,0,0,1,201,74.78c1.65,0,1.81.9,1.81,2.35v3.55c0,1,.53,1.15,1.18,1.15v.27h-3.58v-.27c.65,0,1.19-.14,1.19-1.15V77.48c0-1.34,0-1.95-1-1.95s-2,1.76-2,3.24v1.92c0,1,.53,1.15,1.18,1.15v.27h-3.58Z"/></svg>